<svg width="20" height="24" viewBox="0 0 20 24" fill="none" xmlns="http://www.w3.org/2000/svg">
<path d="M11.0279 11.0017H9.40091C8.67194 11.0017 8.08197 11.6611 8.08197 12.4756V22.9774C8.08197 23.2441 8.27727 23.4623 8.51587 23.4623H11.9131C12.1517 23.4623 12.347 23.2441 12.347 22.9774L12.3468 12.4756C12.3468 11.661 11.7567 11.0017 11.0279 11.0017H11.0279Z" fill="#9C9DA4"/>
<path d="M18.0822 4.8833H16.2687C15.5397 4.8833 14.9497 5.54755 14.9497 6.35723V22.978C14.9497 23.2446 15.1406 23.4629 15.3836 23.4629H18.9673C19.2059 23.4629 19.4012 23.2446 19.4012 22.978V6.35723C19.4012 5.54755 18.8112 4.8833 18.0823 4.8833H18.0822Z" fill="#9C9DA4"/>
<path d="M2.90097 16.7474H1.48667C0.762132 16.7474 0.167725 17.4069 0.167725 18.2214V22.9775C0.167725 23.2441 0.362871 23.4624 0.601625 23.4624H3.78626C4.02924 23.4624 4.22016 23.2441 4.22016 22.9775V18.2214C4.22 17.4067 3.63002 16.7474 2.90105 16.7474H2.90097Z" fill="#9C9DA4"/>
<path d="M16.0288 2.41157L15.6811 2.97804C15.5459 3.19892 15.596 3.50052 15.7938 3.65197C15.8689 3.70948 15.954 3.73691 16.0387 3.73691C16.1769 3.73691 16.3128 3.66322 16.3972 3.52622L17.3353 1.99759C17.3431 1.98475 17.3442 1.96963 17.3509 1.95626C17.3718 1.91441 17.3918 1.87202 17.4009 1.82454C17.4121 1.76615 17.4118 1.70671 17.4036 1.64867C17.403 1.6441 17.4045 1.64006 17.4037 1.63548C17.4037 1.63531 17.4036 1.63531 17.4036 1.63531C17.3934 1.57305 17.3718 1.51343 17.3406 1.45944C17.3093 1.40581 17.2695 1.35973 17.2229 1.32403C17.2228 1.32385 17.2226 1.3235 17.2224 1.3235L15.8547 0.274984C15.6581 0.124089 15.3873 0.179839 15.2518 0.400379C15.1161 0.621266 15.1662 0.923039 15.364 1.07467L15.8654 1.45912L14.884 1.66084C13.7849 1.88648 12.804 2.61562 12.1926 3.66116L10.9698 5.75135C10.3804 6.75872 9.43505 7.46322 8.37625 7.68414L7.19799 7.92965C6.21706 8.13419 5.35623 8.74513 4.77395 9.65084L1.13011 15.3159C0.989892 15.5333 1.03443 15.8364 1.22879 15.9925C1.30543 16.054 1.39403 16.0836 1.48169 16.0836C1.61687 16.0836 1.74954 16.0136 1.8342 15.8817L5.47804 10.2166C5.92971 9.51505 6.59667 9.04142 7.3571 8.88281L8.53536 8.6373C9.8255 8.36805 10.9775 7.50964 11.6957 6.28212L12.9186 4.19157C13.4008 3.36726 14.1739 2.79238 15.0404 2.6144L16.0288 2.41157Z" fill="#9C9DA4"/>
</svg>
