<svg width="26" height="24" viewBox="0 0 26 24" fill="none" xmlns="http://www.w3.org/2000/svg">
<path d="M5.92488 5.8656L6.07425 6.45076C2.90571 7.55133 0.719199 9.28606 0.719199 10.493C0.719199 12.6021 6.64321 15.0723 13.018 15.0723C19.2614 15.0723 25.3168 12.4885 25.3168 10.493C25.3168 9.47278 23.4049 7.86516 20.6133 6.74453L20.7834 6.16718C23.779 7.36952 25.8401 9.10265 25.8401 10.493C25.8401 12.9931 19.5361 15.6828 13.0178 15.6828C6.3651 15.6828 0.195435 13.1102 0.195435 10.493C0.195435 8.90323 2.54462 7.03967 5.92458 5.8656H5.92488Z" fill="#9C9DA4"/>
<path d="M0.442038 10.1049L0.89703 9.80328C1.91154 11.8863 7.30356 13.8511 13.0176 13.8511C18.6212 13.8511 24.0769 11.8088 25.1371 9.76123L25.5851 10.0771C24.4028 12.3593 18.7869 14.4616 13.0172 14.4616C7.13125 14.4616 1.57792 12.438 0.441467 10.1049H0.442038Z" fill="#9C9DA4"/>
<path d="M13.1543 11.9958C8.54739 11.9958 4.81287 9.74676 4.81287 7.82913C4.81287 5.9115 7.68931 0.190186 13.1543 0.190186C18.6193 0.190186 21.4958 5.91128 21.4958 7.82913C21.4958 9.74699 17.7611 11.9958 13.1543 11.9958ZM6.761 5.75396C6.39148 6.53495 6.18027 7.28545 6.18027 7.81825C6.18027 8.01099 6.30752 8.16724 6.46433 8.16724C6.62114 8.16724 6.7482 8.01099 6.7482 7.81825C6.7482 7.42876 6.92848 6.78867 7.25201 6.10471C7.3308 5.93823 7.28482 5.72457 7.14918 5.62775C7.01354 5.53094 6.83975 5.58747 6.76096 5.75394L6.761 5.75396ZM13.2803 1.14746C11.0525 1.14746 9.14726 2.28165 7.7485 4.1292C7.64167 4.27031 7.64815 4.49109 7.763 4.62218C7.87784 4.7535 8.05755 4.74549 8.16439 4.60438C9.46107 2.89215 11.2196 1.84542 13.2806 1.84542C13.4376 1.84542 13.5647 1.68918 13.5647 1.49644C13.5647 1.30369 13.4376 1.14745 13.2806 1.14745L13.2803 1.14746Z" fill="#9C9DA4"/>
<path d="M12.7558 18.292C12.7558 18.1997 12.8729 18.125 13.0175 18.125C13.1621 18.125 13.2793 18.1997 13.2793 18.292V21.2972C13.2793 21.3894 13.1621 21.4642 13.0175 21.4642C12.8729 21.4642 12.7558 21.3894 12.7558 21.2972V18.292ZM12.7558 21.9651C12.7558 21.8728 12.8729 21.7981 13.0175 21.7981C13.1621 21.7981 13.2793 21.8728 13.2793 21.9651V23.3006C13.2793 23.3929 13.1621 23.4676 13.0175 23.4676C12.8729 23.4676 12.7558 23.3929 12.7558 23.3006V21.9651Z" fill="#9C9DA4"/>
<path d="M20.0829 20.5534V17.5482C20.0829 17.4559 20.2001 17.3812 20.3447 17.3812C20.4891 17.3812 20.6062 17.4559 20.6062 17.5482V20.5534C20.6062 20.6456 20.4891 20.7203 20.3447 20.7203C20.2001 20.7203 20.0829 20.6456 20.0829 20.5534ZM20.0829 16.8803V15.5447C20.0829 15.4524 20.2001 15.3777 20.3447 15.3777C20.4891 15.3777 20.6062 15.4524 20.6062 15.5447V16.8803C20.6062 16.9724 20.4891 17.0473 20.3447 17.0473C20.2001 17.0473 20.0829 16.9724 20.0829 16.8803Z" fill="#9C9DA4"/>
<path d="M5.95221 20.8585V17.8533C5.95221 17.761 6.06934 17.6863 6.21395 17.6863C6.35836 17.6863 6.4755 17.761 6.4755 17.8533V20.8585C6.4755 20.9506 6.35837 21.0254 6.21395 21.0254C6.06935 21.0254 5.95221 20.9506 5.95221 20.8585ZM5.95221 17.1854V15.8497C5.95221 15.7575 6.06934 15.6827 6.21395 15.6827C6.35836 15.6827 6.4755 15.7575 6.4755 15.8497V17.1854C6.4755 17.2775 6.35837 17.3524 6.21395 17.3524C6.06935 17.3524 5.95221 17.2775 5.95221 17.1854Z" fill="#9C9DA4"/>
</svg>
