<svg width="27" height="23" viewBox="0 0 27 23" fill="none" xmlns="http://www.w3.org/2000/svg">
<path d="M13.2594 0.258942C13.0673 0.262736 12.8722 0.336966 12.6829 0.471426L0.798987 10.6707C0.493802 11.0003 0.279143 11.7096 0.59371 12.1474C0.908276 12.5852 1.57011 12.6438 1.95209 12.275L13.2597 2.57537L24.5673 12.275C24.9492 12.644 25.625 12.5966 25.9257 12.1474C26.1894 11.7533 26.1246 10.9991 25.7204 10.6707L13.8365 0.471426C13.641 0.322025 13.4519 0.255147 13.2599 0.258942H13.2594ZM5.75382 10.2142L3.8773 11.8292V21.6781V21.6779C3.8773 21.9482 3.97612 22.2077 4.15217 22.3991C4.32799 22.5902 4.56665 22.6976 4.81555 22.6979H10.7575C11.0064 22.6976 11.2451 22.5902 11.4209 22.3991C11.5969 22.2077 11.6958 21.9482 11.6958 21.6779V17.5982C11.6958 16.639 12.377 15.8984 13.2594 15.8984C14.1419 15.8984 14.8231 16.639 14.8231 17.5982V21.6779C14.8231 21.9482 14.9219 22.2077 15.098 22.3991C15.2738 22.5902 15.5125 22.6976 15.7614 22.6979H21.7033C21.9522 22.6976 22.1909 22.5902 22.3667 22.3991C22.5427 22.2077 22.6416 21.9482 22.6416 21.6779V11.8289L20.7651 10.2139V20.6572H16.6995V17.5976C16.6995 15.5434 15.1488 13.8577 13.2593 13.8577C11.3697 13.8577 9.81907 15.5434 9.81907 17.5976V20.6572H5.75346V10.2139L5.75382 10.2142Z" fill="#0C7AFC"/>
</svg>
