<svg width="15" height="27" viewBox="0 0 15 27" fill="none" xmlns="http://www.w3.org/2000/svg">
<path d="M7.22727 0.652533C3.93799 4.54626 2.73509 7.12789 2.60964 12.5081C2.60911 12.5164 2.60899 12.5246 2.60903 12.5328C1.79353 13.2147 0.996708 13.9194 0.175739 14.5949C0.13412 17.0973 0.0759977 19.0319 0.0190727 21.3671C1.0017 20.4455 1.96901 19.5078 2.94023 18.5742L3.95388 18.5989C3.69171 19.7968 3.66231 20.7981 3.9341 21.7844C4.30632 23.1361 5.18721 24.3875 6.59057 26.1409C6.77762 26.3682 7.16623 26.3859 7.37308 26.1764C9.05562 24.4732 10.0214 23.2674 10.4042 21.9169C10.6806 20.9412 10.6287 19.9509 10.3739 18.755L11.47 18.7816C12.3958 19.7602 13.323 20.7375 14.2519 21.7134C14.3053 19.406 14.3757 16.9465 14.4248 14.9414C13.6455 14.2241 12.8759 13.496 12.1027 12.772C12.1032 12.7636 12.103 12.7557 12.1033 12.7473C12.1021 12.7451 12.1048 12.7415 12.1043 12.7391C12.2753 7.36829 11.4332 4.7121 8.03601 0.655948C7.9412 0.540929 7.79556 0.469994 7.6468 0.464503C7.48469 0.465255 7.33683 0.549457 7.22788 0.652704L7.22727 0.652533ZM7.61826 1.86707C10.5314 5.47636 11.2092 7.70359 11.0486 12.7132C10.9876 14.5547 9.89789 16.3775 8.7808 18.1385C8.71266 16.763 8.58716 15.3901 8.53482 14.0139C8.09328 13.51 7.7625 13.1154 7.34021 12.6148C6.87559 13.0949 6.48677 13.5045 6.07115 13.9376C5.92691 15.2762 5.7909 16.6158 5.65187 17.9552C4.67416 16.2478 3.608 14.3543 3.66516 12.5092C3.78311 7.55213 4.7651 5.34117 7.61821 1.86747L7.61826 1.86707ZM7.4917 7.07205C6.33275 7.0439 5.35879 7.97248 5.33059 9.13251C5.30237 10.2925 6.23001 11.2674 7.38894 11.2956C8.54789 11.3237 9.52186 10.3951 9.55006 9.23511C9.57827 8.07511 8.65063 7.1002 7.4917 7.07205ZM2.75164 13.7908C2.98873 15.0035 3.50415 16.2905 4.16929 17.5478L2.52933 17.5079C2.05618 17.9408 1.59923 18.3916 1.13644 18.8358L1.22755 15.091L2.75164 13.7908ZM11.9477 14.0722L13.3586 15.3941L13.2595 19.1305C12.8138 18.6694 12.3874 18.1891 11.9327 17.7364C11.4273 17.7241 10.9217 17.7119 10.4163 17.6996C11.1477 16.5161 11.6941 15.2843 11.9477 14.0722ZM7.29395 14.1901L7.50267 14.4263L7.92139 21.2788L7.0681 22.1164L6.3714 21.2657L7.0826 14.3994L7.29395 14.1901Z" fill="#9C9DA4"/>
</svg>
