<svg width="23" height="23" viewBox="0 0 23 23" fill="none" xmlns="http://www.w3.org/2000/svg">
<path d="M7.05764 0.395874H4.25276C3.26089 0.395874 2.30964 0.789893 1.60829 1.49125C0.906928 2.19261 0.512909 3.14385 0.512909 4.13572L0.512909 6.94061C0.512909 7.93248 0.906928 8.88372 1.60829 9.58508C2.30964 10.2864 3.26089 10.6805 4.25276 10.6805H7.05764C8.04951 10.6805 9.00076 10.2864 9.70212 9.58508C10.4035 8.88372 10.7975 7.93248 10.7975 6.94061V4.13572C10.7975 3.14385 10.4035 2.19261 9.70212 1.49125C9.00076 0.789893 8.04951 0.395874 7.05764 0.395874V0.395874ZM8.92757 6.94061C8.92757 7.43654 8.73056 7.91217 8.37988 8.26284C8.0292 8.61352 7.55358 8.81053 7.05764 8.81053H4.25276C3.75682 8.81053 3.2812 8.61352 2.93052 8.26284C2.57984 7.91217 2.38283 7.43654 2.38283 6.94061V4.13572C2.38283 3.63979 2.57984 3.16416 2.93052 2.81349C3.2812 2.46281 3.75682 2.2658 4.25276 2.2658H7.05764C7.55358 2.2658 8.0292 2.46281 8.37988 2.81349C8.73056 3.16416 8.92757 3.63979 8.92757 4.13572V6.94061Z" fill="#9C9DA4"/>
<path d="M19.2121 0.395874H16.4072C15.4154 0.395874 14.4641 0.789893 13.7628 1.49125C13.0614 2.19261 12.6674 3.14385 12.6674 4.13572V6.94061C12.6674 7.93248 13.0614 8.88372 13.7628 9.58508C14.4641 10.2864 15.4154 10.6805 16.4072 10.6805H19.2121C20.204 10.6805 21.1552 10.2864 21.8566 9.58508C22.558 8.88372 22.952 7.93248 22.952 6.94061V4.13572C22.952 3.14385 22.558 2.19261 21.8566 1.49125C21.1552 0.789893 20.204 0.395874 19.2121 0.395874V0.395874ZM21.082 6.94061C21.082 7.43654 20.885 7.91216 20.5344 8.26284C20.1837 8.61352 19.7081 8.81053 19.2121 8.81053H16.4072C15.9113 8.81053 15.4357 8.61352 15.085 8.26284C14.7343 7.91216 14.5373 7.43654 14.5373 6.94061V4.13572C14.5373 3.63979 14.7343 3.16416 15.085 2.81349C15.4357 2.46281 15.9113 2.2658 16.4072 2.2658H19.2121C19.7081 2.2658 20.1837 2.46281 20.5344 2.81349C20.885 3.16416 21.082 3.63979 21.082 4.13572V6.94061Z" fill="#9C9DA4"/>
<path d="M7.05764 12.5503H4.25276C3.26089 12.5503 2.30964 12.9443 1.60828 13.6457C0.906927 14.347 0.512909 15.2983 0.512909 16.2901L0.512909 19.095C0.512909 20.0869 0.906927 21.0381 1.60828 21.7395C2.30964 22.4409 3.26089 22.8349 4.25276 22.8349H7.05764C8.04951 22.8349 9.00076 22.4409 9.70211 21.7395C10.4035 21.0381 10.7975 20.0869 10.7975 19.095V16.2901C10.7975 15.2983 10.4035 14.347 9.70211 13.6457C9.00076 12.9443 8.04951 12.5503 7.05764 12.5503ZM8.92756 19.095C8.92756 19.591 8.73055 20.0666 8.37988 20.4173C8.0292 20.7679 7.55358 20.965 7.05764 20.965H4.25276C3.75682 20.965 3.2812 20.7679 2.93052 20.4173C2.57984 20.0666 2.38283 19.591 2.38283 19.095V16.2901C2.38283 15.7942 2.57984 15.3186 2.93052 14.9679C3.2812 14.6172 3.75682 14.4202 4.25276 14.4202H7.05764C7.55358 14.4202 8.0292 14.6172 8.37988 14.9679C8.73055 15.3186 8.92756 15.7942 8.92756 16.2901V19.095Z" fill="#9C9DA4"/>
<path d="M19.2121 12.5503H16.4072C15.4154 12.5503 14.4641 12.9443 13.7628 13.6457C13.0614 14.347 12.6674 15.2983 12.6674 16.2901V19.095C12.6674 20.0869 13.0614 21.0381 13.7628 21.7395C14.4641 22.4409 15.4154 22.8349 16.4072 22.8349H19.2121C20.204 22.8349 21.1552 22.4409 21.8566 21.7395C22.558 21.0381 22.952 20.0869 22.952 19.095V16.2901C22.952 15.2983 22.558 14.347 21.8566 13.6457C21.1552 12.9443 20.204 12.5503 19.2121 12.5503ZM21.082 19.095C21.082 19.591 20.885 20.0666 20.5344 20.4173C20.1837 20.7679 19.7081 20.965 19.2121 20.965H16.4072C15.9113 20.965 15.4357 20.7679 15.085 20.4173C14.7343 20.0666 14.5373 19.591 14.5373 19.095V16.2901C14.5373 15.7942 14.7343 15.3186 15.085 14.9679C15.4357 14.6172 15.9113 14.4202 16.4072 14.4202H19.2121C19.7081 14.4202 20.1837 14.6172 20.5344 14.9679C20.885 15.3186 21.082 15.7942 21.082 16.2901V19.095Z" fill="#9C9DA4"/>
</svg>
