<svg width="7" height="7" viewBox="0 0 7 7" fill="none" xmlns="http://www.w3.org/2000/svg">
<path d="M0 3H7V6C7 6.26523 6.89464 6.51959 6.70709 6.70709C6.51959 6.89464 6.26523 7 6 7H1C0.734771 7 0.480414 6.89464 0.292914 6.70709C0.105357 6.51959 0 6.26523 0 6V3Z" fill="#757D8A"/>
<path d="M7 1.75V2.5H0V1.75C0 1.48477 0.105357 1.23041 0.292914 1.04291C0.480414 0.855357 0.734771 0.75 1 0.75H1.25V1.75C1.25 1.83934 1.29766 1.92187 1.375 1.96651C1.45234 2.01116 1.54766 2.01116 1.625 1.96651C1.70234 1.92187 1.75 1.83934 1.75 1.75V0.75H5.25V1.75C5.25 1.83934 5.29766 1.92187 5.375 1.96651C5.45234 2.01116 5.54766 2.01116 5.625 1.96651C5.70234 1.92187 5.75 1.83934 5.75 1.75V0.75H6C6.26523 0.75 6.51959 0.855357 6.70709 1.04291C6.89464 1.23041 7 1.48477 7 1.75Z" fill="#757D8A"/>
<path d="M5.75 0.249996V0.749996H5.25V0.249996C5.25 0.160655 5.29766 0.078125 5.375 0.0334821C5.45234 -0.0111607 5.54766 -0.0111607 5.625 0.0334821C5.70234 0.078125 5.75 0.160658 5.75 0.249996Z" fill="#757D8A"/>
<path d="M1.75 0.249996V0.749996H1.25V0.249996C1.25 0.160655 1.29766 0.078125 1.375 0.0334821C1.45234 -0.0111607 1.54766 -0.0111607 1.625 0.0334821C1.70234 0.078125 1.75 0.160658 1.75 0.249996Z" fill="#757D8A"/>
</svg>
