<svg width="7" height="8" viewBox="0 0 7 8" fill="none" xmlns="http://www.w3.org/2000/svg">
<path d="M6.84373 3.86085L2.90336 2.54985C2.80025 2.51302 2.6898 2.54251 2.61612 2.61613C2.54245 2.6898 2.51301 2.80026 2.54985 2.90337L3.86085 6.84373C3.92712 7.0426 4.19967 7.0573 4.28803 6.87317L5.09082 5.20128C5.11291 5.15709 5.14974 5.11291 5.20127 5.09082L6.87316 4.28803C7.05735 4.19961 7.03525 3.92713 6.84373 3.86085Z" fill="#757D8A"/>
<path d="M0.87057 1.21672L2.01218 2.10794C2.03428 2.13003 2.07111 2.13003 2.0932 2.10794C2.12264 2.08584 2.13004 2.04166 2.10795 2.01217L1.21674 0.870559C1.20199 0.855814 1.1873 0.841121 1.17255 0.826376C1.06944 0.745356 0.914746 0.760101 0.83373 0.870559C0.752763 0.981067 0.767455 1.13571 0.870566 1.21672L0.87057 1.21672Z" fill="#757D8A"/>
<path d="M1.76912 2.91073C1.77647 2.87389 1.74703 2.83706 1.7102 2.83706L0.273989 2.66028H0.215061C0.0825148 2.67502 -0.0132455 2.80023 0.00149796 2.93278C0.0162414 3.06532 0.141449 3.16108 0.273996 3.14634L1.7102 2.96956C1.73969 2.96967 1.76913 2.94757 1.76913 2.91074L1.76912 2.91073Z" fill="#757D8A"/>
<path d="M2.01217 3.69876L0.870559 4.58997C0.855814 4.60472 0.841121 4.61941 0.826376 4.63416C0.745357 4.73727 0.760101 4.89196 0.870559 4.97298C0.973669 5.054 1.12837 5.03926 1.20938 4.9288L2.10059 3.78718C2.12269 3.76509 2.12269 3.72826 2.10059 3.70616C2.08585 3.68402 2.04167 3.67667 2.01218 3.69877L2.01217 3.69876Z" fill="#757D8A"/>
<path d="M3.79455 2.10792L4.93616 1.21671C4.95091 1.20196 4.9656 1.18727 4.98035 1.17252C5.06137 1.06941 5.04662 0.914717 4.93616 0.8337C4.83305 0.752681 4.67836 0.767425 4.59734 0.877883L3.70613 2.0195C3.68404 2.04159 3.68404 2.07843 3.70613 2.10052C3.72092 2.12266 3.76511 2.13001 3.79455 2.10791L3.79455 2.10792Z" fill="#757D8A"/>
<path d="M2.83707 1.7102C2.84442 1.73964 2.86651 1.76912 2.896 1.76912C2.93284 1.77647 2.96967 1.74703 2.96967 1.7102L3.14645 0.273989V0.215062C3.1317 0.0825148 3.0065 -0.0132455 2.87395 0.00149796C2.7414 0.0162414 2.64564 0.141449 2.66039 0.273996L2.83707 1.7102Z" fill="#757D8A"/>
</svg>
