<svg width="13" height="12" viewBox="0 0 13 12" fill="none" xmlns="http://www.w3.org/2000/svg">
<path d="M1.88818 3H2.88818H10.8882" stroke="#757D8A" stroke-linecap="round" stroke-linejoin="round"/>
<path d="M4.38818 3V2C4.38818 1.73478 4.49354 1.48043 4.68108 1.29289C4.86861 1.10536 5.12297 1 5.38818 1H7.38818C7.6534 1 7.90775 1.10536 8.09529 1.29289C8.28283 1.48043 8.38818 1.73478 8.38818 2V3M9.88818 3V10C9.88818 10.2652 9.78283 10.5196 9.59529 10.7071C9.40775 10.8946 9.1534 11 8.88818 11H3.88818C3.62297 11 3.36861 10.8946 3.18108 10.7071C2.99354 10.5196 2.88818 10.2652 2.88818 10V3H9.88818Z" stroke="#757D8A" stroke-linecap="round" stroke-linejoin="round"/>
<path d="M5.38818 5.5V8.5" stroke="#757D8A" stroke-linecap="round" stroke-linejoin="round"/>
<path d="M7.38818 5.5V8.5" stroke="#757D8A" stroke-linecap="round" stroke-linejoin="round"/>
</svg>
